<svg id="account_circle-24px" xmlns="http://www.w3.org/2000/svg" width="22" height="22" viewBox="0 0 22 22">
  <path id="Path_11" data-name="Path 11" d="M0,0H22V22H0Z" fill="none"/>
  <g id="Mask_Group_8" data-name="Mask Group 8" transform="translate(1.53 0.56)">
    <g id="emoji_events-24px" transform="translate(0)">
      <rect id="Rectangle_11" data-name="Rectangle 11" width="18" height="18" transform="translate(0.5)" fill="none"/>
      <g id="Mask_Group_15" data-name="Mask Group 15" transform="translate(-1.22)">
        <g id="emoji_events-24px_1_" data-name="emoji_events-24px (1)">
          <rect id="Rectangle_12" data-name="Rectangle 12" width="21.44" height="21.44" fill="none"/>
          <path id="Path_18" data-name="Path 18" d="M17.159,3.786H15.249V1.875H5.7V3.786H3.786A1.916,1.916,0,0,0,1.875,5.7v.955A4.768,4.768,0,0,0,6.069,11.37,4.785,4.785,0,0,0,9.517,14.2v2.961H5.7V19.07h9.553V17.159H11.428V14.2a4.785,4.785,0,0,0,3.448-2.828A4.768,4.768,0,0,0,19.07,6.651V5.7A1.916,1.916,0,0,0,17.159,3.786ZM3.786,6.651V5.7H5.7V9.345A2.876,2.876,0,0,1,3.786,6.651Zm6.687,5.732A2.874,2.874,0,0,1,7.607,9.517V3.786h5.732V9.517A2.874,2.874,0,0,1,10.472,12.383Zm6.687-5.732a2.876,2.876,0,0,1-1.911,2.694V5.7h1.911Z" transform="translate(0.247 0.247)"/>
        </g>
      </g>
    </g>
  </g>
</svg>
