<svg id="profileblue" xmlns="http://www.w3.org/2000/svg" width="32.436" height="32.436" viewBox="0 0 32.436 32.436">
  <path id="Path_29" data-name="Path 29" d="M0,0H32.436V32.436H0Z" fill="none"/>
  <path id="Path_30" data-name="Path 30" d="M14.812,6.568a2.838,2.838,0,1,1-2.838,2.838,2.838,2.838,0,0,1,2.838-2.838m0,12.164c4.014,0,8.244,1.973,8.244,2.838v1.487H6.568V21.57c0-.865,4.23-2.838,8.244-2.838M14.812,4a5.406,5.406,0,1,0,5.406,5.406A5.4,5.4,0,0,0,14.812,4Zm0,12.164C11.2,16.164,4,17.975,4,21.57v4.055H25.624V21.57C25.624,17.975,18.421,16.164,14.812,16.164Z" transform="translate(1.406 1.406)" fill="#003aff"/>
</svg>
