<svg xmlns="http://www.w3.org/2000/svg" xmlns:xlink="http://www.w3.org/1999/xlink" width="327" height="193" viewBox="0 0 327 193">
  <defs>
    <clipPath id="clip-pwa">
      <rect width="327" height="193"/>
    </clipPath>
  </defs>
  <g id="pwa" clip-path="url(#clip-pwa)">
    <rect width="327" height="193" fill="#fff"/>
    <path id="Path_35" data-name="Path 35" d="M37.117,23H33.6V5.938h3.516Zm5.576-12.68.105,1.465a4.427,4.427,0,0,1,3.645-1.7,3.679,3.679,0,0,1,3,1.184,5.522,5.522,0,0,1,1.008,3.539V23H47.064V14.891a2.2,2.2,0,0,0-.469-1.564,2.1,2.1,0,0,0-1.559-.486,2.33,2.33,0,0,0-2.145,1.219V23H39.505V10.32ZM59.308,19.5a1.091,1.091,0,0,0-.615-.979,6.989,6.989,0,0,0-1.975-.639Q52.2,16.93,52.2,14.035a3.484,3.484,0,0,1,1.4-2.818,5.649,5.649,0,0,1,3.662-1.131,6.08,6.08,0,0,1,3.861,1.137,3.582,3.582,0,0,1,1.447,2.953H59.179a1.639,1.639,0,0,0-.469-1.2,1.984,1.984,0,0,0-1.465-.475,2.027,2.027,0,0,0-1.324.387,1.221,1.221,0,0,0-.469.984,1.044,1.044,0,0,0,.533.908,5.485,5.485,0,0,0,1.8.6,14.693,14.693,0,0,1,2.133.568q2.684.984,2.684,3.41a3.307,3.307,0,0,1-1.488,2.807,6.42,6.42,0,0,1-3.844,1.072,6.706,6.706,0,0,1-2.83-.568A4.748,4.748,0,0,1,52.5,21.107a3.621,3.621,0,0,1-.7-2.139h3.211a1.768,1.768,0,0,0,.668,1.383,2.649,2.649,0,0,0,1.664.48,2.452,2.452,0,0,0,1.471-.369A1.149,1.149,0,0,0,59.308,19.5ZM68.26,7.2V10.32h2.168V12.8H68.26v6.328a1.511,1.511,0,0,0,.27,1.008,1.354,1.354,0,0,0,1.031.3,5.4,5.4,0,0,0,1-.082V22.93a6.972,6.972,0,0,1-2.051.3q-3.562,0-3.633-3.6V12.8H63.021V10.32h1.852V7.2ZM79.086,23a3.761,3.761,0,0,1-.34-1.137,4.1,4.1,0,0,1-3.2,1.371,4.5,4.5,0,0,1-3.088-1.078,3.467,3.467,0,0,1-1.225-2.719,3.583,3.583,0,0,1,1.494-3.094,7.373,7.373,0,0,1,4.318-1.09h1.559v-.727a2.089,2.089,0,0,0-.451-1.406,1.775,1.775,0,0,0-1.424-.527,2.018,2.018,0,0,0-1.342.41,1.393,1.393,0,0,0-.486,1.125H71.516a3.4,3.4,0,0,1,.68-2.039,4.493,4.493,0,0,1,1.922-1.471,7,7,0,0,1,2.789-.533,5.534,5.534,0,0,1,3.721,1.178A4.12,4.12,0,0,1,82,14.574v5.5a6.062,6.062,0,0,0,.5,2.73V23Zm-2.8-2.355a2.917,2.917,0,0,0,1.383-.334,2.194,2.194,0,0,0,.938-.9v-2.18H77.34q-2.543,0-2.707,1.758l-.012.2a1.356,1.356,0,0,0,.445,1.043A1.73,1.73,0,0,0,76.285,20.645ZM87.6,23h-3.4V5h3.4Zm5.787,0h-3.4V5h3.4Zm16.684-4.477a1.8,1.8,0,0,0-.7-1.529,9.222,9.222,0,0,0-2.531-1.125,17.944,17.944,0,0,1-2.895-1.166q-2.906-1.57-2.906-4.23a4.12,4.12,0,0,1,.779-2.467,5.083,5.083,0,0,1,2.238-1.693,8.425,8.425,0,0,1,3.275-.609,7.668,7.668,0,0,1,3.258.662,5.187,5.187,0,0,1,2.221,1.869,4.891,4.891,0,0,1,.791,2.742h-3.516a2.3,2.3,0,0,0-.738-1.822,3.035,3.035,0,0,0-2.074-.65,3.242,3.242,0,0,0-2,.545,1.719,1.719,0,0,0-.715,1.436,1.646,1.646,0,0,0,.838,1.395,9.466,9.466,0,0,0,2.467,1.055,10.658,10.658,0,0,1,4.371,2.238A4.458,4.458,0,0,1,113.6,18.5a4.106,4.106,0,0,1-1.676,3.475,7.336,7.336,0,0,1-4.512,1.26,8.712,8.712,0,0,1-3.586-.721,5.674,5.674,0,0,1-2.467-1.975,5.057,5.057,0,0,1-.85-2.906h3.527q0,2.824,3.375,2.824a3.283,3.283,0,0,0,1.957-.51A1.658,1.658,0,0,0,110.075,18.523Zm8.846-1.535V23h-3.516V5.938h6.656a7.7,7.7,0,0,1,3.381.7,5.181,5.181,0,0,1,2.244,2,5.571,5.571,0,0,1,.785,2.947,4.9,4.9,0,0,1-1.717,3.955A7.15,7.15,0,0,1,122,16.988Zm0-2.848h3.141a3.088,3.088,0,0,0,2.127-.656,2.387,2.387,0,0,0,.732-1.875,2.814,2.814,0,0,0-.738-2.027,2.758,2.758,0,0,0-2.039-.8h-3.223Zm18.936,5.344h-6.164L130.521,23h-3.738l6.352-17.062h3.258L142.778,23H139.04Zm-5.215-2.848h4.266l-2.145-6.387Zm26.188,2.848h-6.164L151.494,23h-3.738l6.352-17.062h3.258L163.751,23h-3.738Zm-5.215-2.848h4.266l-2.145-6.387Zm21.783.141a7.6,7.6,0,0,1-1.33,4.693,4.264,4.264,0,0,1-3.592,1.764,3.95,3.95,0,0,1-3.105-1.336v5.977h-3.387V10.32h3.141l.117,1.242a3.98,3.98,0,0,1,3.211-1.477A4.294,4.294,0,0,1,174.1,11.82a7.811,7.811,0,0,1,1.3,4.781Zm-3.387-.246a4.99,4.99,0,0,0-.627-2.73,2.042,2.042,0,0,0-1.822-.961,2.218,2.218,0,0,0-2.191,1.219V19.25a2.255,2.255,0,0,0,2.215,1.254Q172.011,20.5,172.011,16.531Zm16.322.246A7.6,7.6,0,0,1,187,21.471a4.264,4.264,0,0,1-3.592,1.764,3.95,3.95,0,0,1-3.105-1.336v5.977H176.92V10.32h3.141l.117,1.242a3.98,3.98,0,0,1,3.211-1.477,4.294,4.294,0,0,1,3.645,1.734,7.811,7.811,0,0,1,1.3,4.781Zm-3.387-.246a4.99,4.99,0,0,0-.627-2.73,2.042,2.042,0,0,0-1.822-.961,2.218,2.218,0,0,0-2.191,1.219V19.25a2.255,2.255,0,0,0,2.215,1.254Q184.947,20.5,184.947,16.531ZM195.479,23V5.938h5.25a7.973,7.973,0,0,1,4.025,1.014,7.069,7.069,0,0,1,2.771,2.883,8.892,8.892,0,0,1,1,4.248v.785a8.917,8.917,0,0,1-.979,4.23,7.008,7.008,0,0,1-2.76,2.871A8.033,8.033,0,0,1,200.764,23Zm3.516-14.215V20.176h1.7a3.818,3.818,0,0,0,3.152-1.348,6.09,6.09,0,0,0,1.113-3.855v-.9a6.187,6.187,0,0,0-1.078-3.943,3.8,3.8,0,0,0-3.152-1.342Zm17.119,14.449a6.225,6.225,0,0,1-4.541-1.711,6.082,6.082,0,0,1-1.752-4.559v-.328a7.66,7.66,0,0,1,.738-3.416,5.418,5.418,0,0,1,2.092-2.32,5.871,5.871,0,0,1,3.088-.814,5.262,5.262,0,0,1,4.1,1.641,6.667,6.667,0,0,1,1.494,4.652v1.383h-8.074a3.146,3.146,0,0,0,.99,1.992,2.993,2.993,0,0,0,2.092.75,3.656,3.656,0,0,0,3.059-1.418l1.664,1.863A5.084,5.084,0,0,1,219,22.631,6.767,6.767,0,0,1,216.114,23.234Zm-.387-10.418a2.116,2.116,0,0,0-1.635.683,3.535,3.535,0,0,0-.8,1.954H218v-.271a2.521,2.521,0,0,0-.609-1.748A2.183,2.183,0,0,0,215.727,12.816Zm10.123-2.5.105,1.418a4.456,4.456,0,0,1,3.645-1.652,3.382,3.382,0,0,1,3.363,1.934,4.354,4.354,0,0,1,3.809-1.934,3.782,3.782,0,0,1,3.07,1.2A5.521,5.521,0,0,1,240.85,14.9V23h-3.4V14.914a2.414,2.414,0,0,0-.422-1.576,1.87,1.87,0,0,0-1.488-.5,2.114,2.114,0,0,0-2.109,1.453L233.444,23h-3.387V14.926a2.385,2.385,0,0,0-.434-1.594,1.888,1.888,0,0,0-1.477-.492,2.195,2.195,0,0,0-2.086,1.2V23h-3.387V10.32Zm16.5,6.223a7.52,7.52,0,0,1,.727-3.363,5.319,5.319,0,0,1,2.092-2.285,6.1,6.1,0,0,1,3.17-.809,5.774,5.774,0,0,1,4.189,1.57,6.3,6.3,0,0,1,1.811,4.266l.023.867a6.627,6.627,0,0,1-1.629,4.682,6.313,6.313,0,0,1-8.748.006,6.744,6.744,0,0,1-1.635-4.781Zm3.387.24a4.74,4.74,0,0,0,.68,2.764,2.442,2.442,0,0,0,3.867.012,5.186,5.186,0,0,0,.691-3.022,4.692,4.692,0,0,0-.691-2.746,2.248,2.248,0,0,0-1.945-.974,2.211,2.211,0,0,0-1.922.968A5.274,5.274,0,0,0,245.735,16.783Z" transform="translate(20 17)"/>
    <path id="Path_36" data-name="Path 36" d="M11.128,12H9.9L5.25,4.878V12H4.025V2.758H5.25L9.916,9.912V2.758h1.212ZM12.8,8.5a4.057,4.057,0,0,1,.4-1.815,2.96,2.96,0,0,1,1.1-1.244A3.007,3.007,0,0,1,15.915,5a2.9,2.9,0,0,1,2.269.971A3.736,3.736,0,0,1,19.05,8.56v.083a4.092,4.092,0,0,1-.384,1.8,2.916,2.916,0,0,1-1.1,1.241,3.041,3.041,0,0,1-1.641.444,2.889,2.889,0,0,1-2.263-.971A3.718,3.718,0,0,1,12.8,8.585Zm1.181.14a2.938,2.938,0,0,0,.53,1.834,1.8,1.8,0,0,0,2.841-.01A3.213,3.213,0,0,0,17.876,8.5a2.933,2.933,0,0,0-.536-1.831,1.705,1.705,0,0,0-1.425-.7,1.686,1.686,0,0,0-1.4.692A3.189,3.189,0,0,0,13.979,8.642Zm8.138-5.173V5.132H23.4V6.04H22.116V10.3a.953.953,0,0,0,.171.62.721.721,0,0,0,.584.207,2.843,2.843,0,0,0,.559-.076V12a3.424,3.424,0,0,1-.9.126,1.462,1.462,0,0,1-1.187-.476,2.045,2.045,0,0,1-.4-1.352V6.04h-1.25V5.132h1.25V3.469Zm5.5,8.658a3,3,0,0,1-2.272-.917,3.4,3.4,0,0,1-.876-2.453V8.541a4.121,4.121,0,0,1,.39-1.825,3.045,3.045,0,0,1,1.092-1.257A2.745,2.745,0,0,1,27.474,5a2.572,2.572,0,0,1,2.082.882A3.82,3.82,0,0,1,30.3,8.414V8.9H25.646a2.441,2.441,0,0,0,.594,1.641,1.866,1.866,0,0,0,1.444.625,2.045,2.045,0,0,0,1.054-.254,2.648,2.648,0,0,0,.755-.673l.717.559A2.884,2.884,0,0,1,27.62,12.127ZM27.474,5.97a1.566,1.566,0,0,0-1.193.517,2.515,2.515,0,0,0-.6,1.45h3.44V7.849a2.237,2.237,0,0,0-.482-1.387A1.475,1.475,0,0,0,27.474,5.97Zm8.182,4.208a.865.865,0,0,0-.359-.74,3.452,3.452,0,0,0-1.25-.454,5.912,5.912,0,0,1-1.416-.457,2.014,2.014,0,0,1-.774-.635,1.518,1.518,0,0,1-.251-.876,1.782,1.782,0,0,1,.714-1.428A2.789,2.789,0,0,1,34.145,5a2.87,2.87,0,0,1,1.895.6,1.915,1.915,0,0,1,.727,1.542H35.586a1.06,1.06,0,0,0-.409-.832,1.534,1.534,0,0,0-1.031-.349,1.605,1.605,0,0,0-1,.279.879.879,0,0,0-.362.73.712.712,0,0,0,.336.641,4.139,4.139,0,0,0,1.216.413,6.334,6.334,0,0,1,1.425.47,2.079,2.079,0,0,1,.809.657,1.615,1.615,0,0,1,.263.936,1.758,1.758,0,0,1-.736,1.476,3.089,3.089,0,0,1-1.911.555,3.459,3.459,0,0,1-1.46-.292,2.375,2.375,0,0,1-.993-.816,1.966,1.966,0,0,1-.359-1.133h1.174a1.216,1.216,0,0,0,.473.936,1.835,1.835,0,0,0,1.165.346,1.894,1.894,0,0,0,1.07-.27A.829.829,0,0,0,35.656,10.178Zm2.666,1.206a.735.735,0,0,1,.181-.508.689.689,0,0,1,.543-.2.71.71,0,0,1,.549.2.721.721,0,0,1,.187.508.681.681,0,0,1-.187.489.723.723,0,0,1-.549.2.653.653,0,0,1-.724-.686Zm.006-5.6a.735.735,0,0,1,.181-.508.689.689,0,0,1,.543-.2.71.71,0,0,1,.549.2.721.721,0,0,1,.187.508.681.681,0,0,1-.187.489.723.723,0,0,1-.549.2.653.653,0,0,1-.724-.686Zm7.8,2.6V12H44.911V2.758h3.409a3.425,3.425,0,0,1,2.377.774,2.625,2.625,0,0,1,.86,2.05,2.591,2.591,0,0,1-.841,2.073,3.578,3.578,0,0,1-2.409.727Zm0-1h2.19a2.19,2.19,0,0,0,1.5-.461,1.686,1.686,0,0,0,.521-1.332,1.742,1.742,0,0,0-.521-1.323,2.051,2.051,0,0,0-1.428-.515h-2.26ZM54.2,12H53.029V2.25H54.2Zm4.729.127a3,3,0,0,1-2.272-.917,3.4,3.4,0,0,1-.876-2.453V8.541a4.121,4.121,0,0,1,.39-1.825,3.045,3.045,0,0,1,1.092-1.257A2.745,2.745,0,0,1,58.787,5a2.572,2.572,0,0,1,2.082.882,3.82,3.82,0,0,1,.743,2.526V8.9H56.958a2.441,2.441,0,0,0,.594,1.641A1.866,1.866,0,0,0,59,11.168a2.045,2.045,0,0,0,1.054-.254,2.648,2.648,0,0,0,.755-.673l.717.559A2.884,2.884,0,0,1,58.933,12.127ZM58.787,5.97a1.566,1.566,0,0,0-1.193.517,2.515,2.515,0,0,0-.6,1.45h3.44V7.849a2.237,2.237,0,0,0-.482-1.387A1.475,1.475,0,0,0,58.787,5.97ZM67.21,12a2.467,2.467,0,0,1-.165-.724,2.62,2.62,0,0,1-1.955.851,2.424,2.424,0,0,1-1.666-.574,1.859,1.859,0,0,1-.651-1.457,1.942,1.942,0,0,1,.816-1.666,3.846,3.846,0,0,1,2.295-.594h1.143V7.3a1.319,1.319,0,0,0-.368-.981,1.48,1.48,0,0,0-1.085-.365,1.712,1.712,0,0,0-1.054.317.935.935,0,0,0-.425.768H62.913a1.621,1.621,0,0,1,.365-.993,2.491,2.491,0,0,1,.99-.759A3.331,3.331,0,0,1,65.642,5,2.715,2.715,0,0,1,67.5,5.6a2.141,2.141,0,0,1,.7,1.635v3.161a3.865,3.865,0,0,0,.241,1.5V12Zm-1.949-.9a2.064,2.064,0,0,0,1.047-.286,1.728,1.728,0,0,0,.717-.743V8.667h-.92q-2.158,0-2.158,1.263a1.069,1.069,0,0,0,.368.863A1.415,1.415,0,0,0,65.261,11.1Zm8.779-.927a.864.864,0,0,0-.359-.74,3.452,3.452,0,0,0-1.25-.454,5.912,5.912,0,0,1-1.416-.457,2.014,2.014,0,0,1-.774-.635,1.518,1.518,0,0,1-.251-.876A1.782,1.782,0,0,1,70.7,5.589,2.789,2.789,0,0,1,72.529,5a2.87,2.87,0,0,1,1.895.6,1.915,1.915,0,0,1,.727,1.542H73.97a1.06,1.06,0,0,0-.409-.832,1.534,1.534,0,0,0-1.031-.349,1.606,1.606,0,0,0-1,.279.879.879,0,0,0-.362.73.712.712,0,0,0,.336.641,4.139,4.139,0,0,0,1.216.413,6.334,6.334,0,0,1,1.425.47,2.079,2.079,0,0,1,.809.657,1.615,1.615,0,0,1,.263.936,1.758,1.758,0,0,1-.736,1.476,3.089,3.089,0,0,1-1.911.555,3.459,3.459,0,0,1-1.46-.292,2.375,2.375,0,0,1-.993-.816,1.966,1.966,0,0,1-.359-1.133H70.93a1.216,1.216,0,0,0,.473.936,1.835,1.835,0,0,0,1.165.346,1.894,1.894,0,0,0,1.07-.27A.829.829,0,0,0,74.04,10.178Zm5.554,1.949a3,3,0,0,1-2.272-.917,3.4,3.4,0,0,1-.876-2.453V8.541a4.121,4.121,0,0,1,.39-1.825,3.045,3.045,0,0,1,1.092-1.257A2.745,2.745,0,0,1,79.448,5a2.572,2.572,0,0,1,2.082.882,3.82,3.82,0,0,1,.743,2.526V8.9H77.62a2.441,2.441,0,0,0,.594,1.641,1.866,1.866,0,0,0,1.444.625,2.045,2.045,0,0,0,1.054-.254,2.648,2.648,0,0,0,.755-.673l.717.559A2.884,2.884,0,0,1,79.594,12.127ZM79.448,5.97a1.566,1.566,0,0,0-1.193.517,2.515,2.515,0,0,0-.6,1.45H81.1V7.849a2.237,2.237,0,0,0-.482-1.387A1.475,1.475,0,0,0,79.448,5.97Zm8.506-.838.032.762A2.536,2.536,0,0,1,90.023,5a1.964,1.964,0,0,1,1.961,1.1,2.6,2.6,0,0,1,.892-.8,2.634,2.634,0,0,1,1.3-.3q2.26,0,2.3,2.393V12H95.3V7.468a1.577,1.577,0,0,0-.336-1.1A1.482,1.482,0,0,0,93.832,6a1.557,1.557,0,0,0-1.085.39,1.584,1.584,0,0,0-.5,1.051V12H91.064V7.5A1.31,1.31,0,0,0,89.6,6a1.571,1.571,0,0,0-1.581.984V12H86.843V5.132ZM102.484,12a2.467,2.467,0,0,1-.165-.724,2.62,2.62,0,0,1-1.955.851,2.424,2.424,0,0,1-1.666-.574,1.859,1.859,0,0,1-.651-1.457,1.942,1.942,0,0,1,.816-1.666,3.846,3.846,0,0,1,2.295-.594H102.3V7.3a1.319,1.319,0,0,0-.368-.981,1.48,1.48,0,0,0-1.085-.365,1.712,1.712,0,0,0-1.054.317.935.935,0,0,0-.425.768H98.187a1.621,1.621,0,0,1,.365-.993,2.491,2.491,0,0,1,.99-.759A3.331,3.331,0,0,1,100.916,5a2.715,2.715,0,0,1,1.86.594,2.141,2.141,0,0,1,.7,1.635v3.161a3.865,3.865,0,0,0,.241,1.5V12Zm-1.949-.9a2.064,2.064,0,0,0,1.047-.286,1.728,1.728,0,0,0,.717-.743V8.667h-.92q-2.158,0-2.158,1.263a1.069,1.069,0,0,0,.368.863A1.415,1.415,0,0,0,100.535,11.1Zm6.7-2.285-.736.768V12h-1.174V2.25H106.5v5.9l.628-.755,2.139-2.26h1.428L108.019,8,111,12h-1.377Zm7.4,3.307a3,3,0,0,1-2.272-.917,3.4,3.4,0,0,1-.876-2.453V8.541a4.121,4.121,0,0,1,.39-1.825,3.045,3.045,0,0,1,1.092-1.257A2.745,2.745,0,0,1,114.481,5a2.572,2.572,0,0,1,2.082.882,3.82,3.82,0,0,1,.743,2.526V8.9h-4.653a2.441,2.441,0,0,0,.594,1.641,1.866,1.866,0,0,0,1.444.625,2.045,2.045,0,0,0,1.054-.254,2.648,2.648,0,0,0,.755-.673l.717.559A2.884,2.884,0,0,1,114.627,12.127Zm-.146-6.157a1.566,1.566,0,0,0-1.193.517,2.515,2.515,0,0,0-.6,1.45h3.44V7.849a2.237,2.237,0,0,0-.482-1.387A1.475,1.475,0,0,0,114.481,5.97Zm11.4,4.208a.864.864,0,0,0-.359-.74,3.452,3.452,0,0,0-1.25-.454,5.912,5.912,0,0,1-1.416-.457,2.014,2.014,0,0,1-.774-.635,1.518,1.518,0,0,1-.251-.876,1.782,1.782,0,0,1,.714-1.428A2.789,2.789,0,0,1,124.371,5a2.87,2.87,0,0,1,1.895.6,1.915,1.915,0,0,1,.727,1.542h-1.181a1.06,1.06,0,0,0-.409-.832,1.534,1.534,0,0,0-1.031-.349,1.606,1.606,0,0,0-1,.279.879.879,0,0,0-.362.73.712.712,0,0,0,.336.641,4.139,4.139,0,0,0,1.216.413,6.334,6.334,0,0,1,1.425.47,2.079,2.079,0,0,1,.809.657,1.615,1.615,0,0,1,.263.936,1.758,1.758,0,0,1-.736,1.476,3.089,3.089,0,0,1-1.911.555,3.459,3.459,0,0,1-1.46-.292,2.375,2.375,0,0,1-.993-.816,1.966,1.966,0,0,1-.359-1.133h1.174a1.216,1.216,0,0,0,.473.936,1.835,1.835,0,0,0,1.165.346,1.894,1.894,0,0,0,1.07-.27A.829.829,0,0,0,125.881,10.178Zm6.944,1.143a2.494,2.494,0,0,1-2.012.806,2.135,2.135,0,0,1-1.673-.638A2.761,2.761,0,0,1,128.56,9.6V5.132h1.174V9.569q0,1.562,1.27,1.562a1.758,1.758,0,0,0,1.79-1v-5h1.174V12h-1.117Zm6.246-5.135a3.519,3.519,0,0,0-.578-.044,1.547,1.547,0,0,0-1.568.984V12h-1.174V5.132h1.143l.019.793A1.829,1.829,0,0,1,138.551,5a1.2,1.2,0,0,1,.521.089Zm3.809,5.941a3,3,0,0,1-2.272-.917,3.4,3.4,0,0,1-.876-2.453V8.541a4.121,4.121,0,0,1,.39-1.825,3.045,3.045,0,0,1,1.092-1.257A2.745,2.745,0,0,1,142.734,5a2.572,2.572,0,0,1,2.082.882,3.82,3.82,0,0,1,.743,2.526V8.9h-4.653a2.441,2.441,0,0,0,.594,1.641,1.866,1.866,0,0,0,1.444.625A2.045,2.045,0,0,0,144,10.915a2.647,2.647,0,0,0,.755-.673l.717.559A2.884,2.884,0,0,1,142.88,12.127Zm-.146-6.157a1.566,1.566,0,0,0-1.193.517,2.515,2.515,0,0,0-.6,1.45h3.44V7.849a2.237,2.237,0,0,0-.482-1.387A1.475,1.475,0,0,0,142.734,5.97Zm9.648,4.31,1.6-5.148h1.257l-2.761,7.928q-.641,1.714-2.038,1.714l-.222-.019-.438-.083V13.72l.317.025a1.563,1.563,0,0,0,.93-.241,1.746,1.746,0,0,0,.549-.882l.26-.7-2.45-6.792h1.282Zm3.5-1.777a4.057,4.057,0,0,1,.4-1.815,2.959,2.959,0,0,1,1.1-1.244A3.007,3.007,0,0,1,159,5a2.9,2.9,0,0,1,2.269.971,3.736,3.736,0,0,1,.866,2.583v.083a4.092,4.092,0,0,1-.384,1.8,2.916,2.916,0,0,1-1.1,1.241,3.041,3.041,0,0,1-1.641.444,2.889,2.889,0,0,1-2.263-.971,3.718,3.718,0,0,1-.866-2.571Zm1.181.14a2.938,2.938,0,0,0,.53,1.834,1.8,1.8,0,0,0,2.841-.01,3.213,3.213,0,0,0,.527-1.965,2.933,2.933,0,0,0-.536-1.831A1.705,1.705,0,0,0,159,5.97a1.686,1.686,0,0,0-1.4.692A3.189,3.189,0,0,0,157.061,8.642Zm10.785,2.679a2.494,2.494,0,0,1-2.012.806,2.135,2.135,0,0,1-1.673-.638A2.761,2.761,0,0,1,163.58,9.6V5.132h1.174V9.569q0,1.562,1.27,1.562a1.758,1.758,0,0,0,1.79-1v-5h1.174V12h-1.117ZM178.23,12a2.467,2.467,0,0,1-.165-.724,2.62,2.62,0,0,1-1.955.851,2.424,2.424,0,0,1-1.666-.574,1.859,1.859,0,0,1-.651-1.457,1.942,1.942,0,0,1,.816-1.666,3.846,3.846,0,0,1,2.295-.594h1.143V7.3a1.319,1.319,0,0,0-.368-.981,1.48,1.48,0,0,0-1.085-.365,1.712,1.712,0,0,0-1.054.317.935.935,0,0,0-.425.768h-1.181a1.621,1.621,0,0,1,.365-.993,2.491,2.491,0,0,1,.99-.759A3.331,3.331,0,0,1,176.663,5a2.715,2.715,0,0,1,1.86.594,2.141,2.141,0,0,1,.7,1.635v3.161a3.865,3.865,0,0,0,.241,1.5V12Zm-1.949-.9a2.064,2.064,0,0,0,1.047-.286,1.728,1.728,0,0,0,.717-.743V8.667h-.92q-2.158,0-2.158,1.263a1.069,1.069,0,0,0,.368.863A1.415,1.415,0,0,0,176.282,11.1Zm8.1-4.919a3.519,3.519,0,0,0-.578-.044,1.547,1.547,0,0,0-1.568.984V12h-1.174V5.132H182.2l.019.793A1.829,1.829,0,0,1,183.861,5a1.2,1.2,0,0,1,.521.089Zm3.809,5.941a3,3,0,0,1-2.272-.917,3.4,3.4,0,0,1-.876-2.453V8.541a4.121,4.121,0,0,1,.39-1.825,3.045,3.045,0,0,1,1.092-1.257A2.745,2.745,0,0,1,188.044,5a2.572,2.572,0,0,1,2.082.882,3.82,3.82,0,0,1,.743,2.526V8.9h-4.653a2.441,2.441,0,0,0,.594,1.641,1.866,1.866,0,0,0,1.444.625,2.045,2.045,0,0,0,1.054-.254,2.647,2.647,0,0,0,.755-.673l.717.559A2.884,2.884,0,0,1,188.19,12.127Zm-.146-6.157a1.566,1.566,0,0,0-1.193.517,2.515,2.515,0,0,0-.6,1.45h3.44V7.849a2.237,2.237,0,0,0-.482-1.387A1.475,1.475,0,0,0,188.044,5.97Zm11.642,5.351a2.494,2.494,0,0,1-2.012.806A2.135,2.135,0,0,1,196,11.489,2.761,2.761,0,0,1,195.42,9.6V5.132h1.174V9.569q0,1.562,1.27,1.562a1.758,1.758,0,0,0,1.79-1v-5h1.174V12h-1.117Zm6.925-1.143a.865.865,0,0,0-.359-.74A3.452,3.452,0,0,0,205,8.985a5.912,5.912,0,0,1-1.416-.457,2.014,2.014,0,0,1-.774-.635,1.518,1.518,0,0,1-.251-.876,1.782,1.782,0,0,1,.714-1.428A2.789,2.789,0,0,1,205.1,5a2.87,2.87,0,0,1,1.895.6,1.915,1.915,0,0,1,.727,1.542h-1.181a1.06,1.06,0,0,0-.409-.832A1.534,1.534,0,0,0,205.1,5.97a1.605,1.605,0,0,0-1,.279.879.879,0,0,0-.362.73.712.712,0,0,0,.336.641,4.139,4.139,0,0,0,1.216.413,6.334,6.334,0,0,1,1.425.47,2.079,2.079,0,0,1,.809.657,1.615,1.615,0,0,1,.263.936,1.758,1.758,0,0,1-.736,1.476,3.089,3.089,0,0,1-1.911.555,3.459,3.459,0,0,1-1.46-.292,2.375,2.375,0,0,1-.993-.816,1.966,1.966,0,0,1-.359-1.133H203.5a1.216,1.216,0,0,0,.473.936,1.835,1.835,0,0,0,1.165.346,1.894,1.894,0,0,0,1.07-.27A.829.829,0,0,0,206.611,10.178ZM210.591,12h-1.174V5.132h1.174Zm-1.27-8.69a.7.7,0,0,1,.175-.482.655.655,0,0,1,.517-.2.666.666,0,0,1,.521.2.694.694,0,0,1,.178.482.671.671,0,0,1-.178.476.678.678,0,0,1-.521.19.667.667,0,0,1-.517-.19A.678.678,0,0,1,209.321,3.31Zm4.259,1.822.038.863A2.5,2.5,0,0,1,215.675,5q2.177,0,2.2,2.457V12H216.7V7.455a1.581,1.581,0,0,0-.34-1.1A1.361,1.361,0,0,0,215.32,6a1.7,1.7,0,0,0-1,.3,2.069,2.069,0,0,0-.673.8V12H212.47V5.132Zm5.783,3.377a4.037,4.037,0,0,1,.743-2.555,2.56,2.56,0,0,1,3.929-.06l.057-.762h1.073v6.7a2.794,2.794,0,0,1-.79,2.1,2.916,2.916,0,0,1-2.123.768,3.532,3.532,0,0,1-1.454-.317,2.5,2.5,0,0,1-1.085-.87l.609-.7a2.3,2.3,0,0,0,1.847.933,1.8,1.8,0,0,0,1.336-.482,1.844,1.844,0,0,0,.479-1.358v-.59a2.414,2.414,0,0,1-1.923.813,2.346,2.346,0,0,1-1.952-.971A4.244,4.244,0,0,1,219.363,8.509Zm1.181.133a3.08,3.08,0,0,0,.476,1.825,1.547,1.547,0,0,0,1.333.663,1.72,1.72,0,0,0,1.631-1.009V6.985A1.74,1.74,0,0,0,222.366,6a1.561,1.561,0,0,0-1.339.667A3.354,3.354,0,0,0,220.544,8.642ZM56.847,31a2.467,2.467,0,0,1-.165-.724,2.62,2.62,0,0,1-1.955.851,2.424,2.424,0,0,1-1.666-.574A1.859,1.859,0,0,1,52.41,29.1a1.942,1.942,0,0,1,.816-1.666,3.846,3.846,0,0,1,2.295-.594h1.143V26.3a1.319,1.319,0,0,0-.368-.981,1.48,1.48,0,0,0-1.085-.365,1.712,1.712,0,0,0-1.054.317.935.935,0,0,0-.425.768H52.55a1.621,1.621,0,0,1,.365-.993,2.491,2.491,0,0,1,.99-.759A3.331,3.331,0,0,1,55.28,24a2.715,2.715,0,0,1,1.86.594,2.141,2.141,0,0,1,.7,1.635v3.161a3.865,3.865,0,0,0,.241,1.5V31ZM54.9,30.1a2.064,2.064,0,0,0,1.047-.286,1.728,1.728,0,0,0,.717-.743V27.667h-.92q-2.158,0-2.158,1.263a1.069,1.069,0,0,0,.368.863A1.415,1.415,0,0,0,54.9,30.1Zm5.891-5.973.038.863A2.5,2.5,0,0,1,62.884,24q2.177,0,2.2,2.457V31H63.906V26.455a1.581,1.581,0,0,0-.34-1.1A1.361,1.361,0,0,0,62.529,25a1.7,1.7,0,0,0-1,.3,2.069,2.069,0,0,0-.673.8V31H59.678V24.132ZM71.345,31H70.171V24.132h1.174Zm-1.27-8.69a.7.7,0,0,1,.175-.482.655.655,0,0,1,.517-.2.666.666,0,0,1,.521.2.694.694,0,0,1,.178.482.671.671,0,0,1-.178.476.678.678,0,0,1-.521.19.667.667,0,0,1-.517-.19A.678.678,0,0,1,70.076,22.31Zm4.551,5.072V31H73.408V21.758h3.409a3.425,3.425,0,0,1,2.377.774,2.625,2.625,0,0,1,.86,2.05,2.591,2.591,0,0,1-.841,2.073,3.578,3.578,0,0,1-2.409.727Zm0-1h2.19a2.19,2.19,0,0,0,1.5-.461,1.686,1.686,0,0,0,.521-1.332,1.742,1.742,0,0,0-.521-1.323,2.051,2.051,0,0,0-1.428-.515h-2.26ZM82.6,24.963A2.5,2.5,0,0,1,84.631,24q2.177,0,2.2,2.457V31H85.653V26.455a1.581,1.581,0,0,0-.34-1.1A1.361,1.361,0,0,0,84.276,25a1.7,1.7,0,0,0-1,.3,2.069,2.069,0,0,0-.673.8V31H81.426V21.25H82.6ZM88.275,27.5a4.057,4.057,0,0,1,.4-1.815,2.96,2.96,0,0,1,1.1-1.244A3.007,3.007,0,0,1,91.391,24a2.9,2.9,0,0,1,2.269.971,3.736,3.736,0,0,1,.866,2.583v.083a4.092,4.092,0,0,1-.384,1.8,2.916,2.916,0,0,1-1.1,1.241,3.041,3.041,0,0,1-1.641.444,2.889,2.889,0,0,1-2.263-.971,3.718,3.718,0,0,1-.866-2.571Zm1.181.14a2.938,2.938,0,0,0,.53,1.834,1.8,1.8,0,0,0,2.841-.01,3.213,3.213,0,0,0,.527-1.965,2.933,2.933,0,0,0-.536-1.831,1.705,1.705,0,0,0-1.425-.7,1.686,1.686,0,0,0-1.4.692A3.189,3.189,0,0,0,89.455,27.642Zm7.655-3.51.038.863A2.5,2.5,0,0,1,99.205,24q2.177,0,2.2,2.457V31h-1.174V26.455a1.581,1.581,0,0,0-.34-1.1A1.361,1.361,0,0,0,98.85,25a1.7,1.7,0,0,0-1,.3,2.069,2.069,0,0,0-.673.8V31H96V24.132Zm8.912,7a3,3,0,0,1-2.272-.917,3.4,3.4,0,0,1-.876-2.453v-.216a4.121,4.121,0,0,1,.39-1.825,3.045,3.045,0,0,1,1.092-1.257,2.745,2.745,0,0,1,1.52-.454,2.572,2.572,0,0,1,2.082.882,3.82,3.82,0,0,1,.743,2.526V27.9h-4.653a2.441,2.441,0,0,0,.594,1.641,1.866,1.866,0,0,0,1.444.625,2.045,2.045,0,0,0,1.054-.254,2.648,2.648,0,0,0,.755-.673l.717.559A2.884,2.884,0,0,1,106.023,31.127Zm-.146-6.157a1.566,1.566,0,0,0-1.193.517,2.515,2.515,0,0,0-.6,1.45h3.44v-.089a2.237,2.237,0,0,0-.482-1.387A1.475,1.475,0,0,0,105.877,24.97Zm13.482,4.412,1.32-5.25h1.174l-2,6.868H118.9l-1.669-5.205L115.608,31h-.952l-1.993-6.868h1.168l1.352,5.142,1.6-5.142h.946ZM124.323,31h-1.174V24.132h1.174Zm-1.27-8.69a.7.7,0,0,1,.175-.482.655.655,0,0,1,.517-.2.666.666,0,0,1,.521.2.694.694,0,0,1,.178.482.671.671,0,0,1-.178.476.678.678,0,0,1-.521.19.667.667,0,0,1-.517-.19A.678.678,0,0,1,123.053,22.31Zm4.742.159v1.663h1.282v.908H127.8V29.3a.953.953,0,0,0,.171.62.721.721,0,0,0,.584.207,2.843,2.843,0,0,0,.559-.076V31a3.424,3.424,0,0,1-.9.126,1.462,1.462,0,0,1-1.187-.476,2.045,2.045,0,0,1-.4-1.352V25.04h-1.25v-.908h1.25V22.469Zm3.828,2.495A2.5,2.5,0,0,1,133.654,24q2.177,0,2.2,2.457V31h-1.174V26.455a1.581,1.581,0,0,0-.34-1.1A1.361,1.361,0,0,0,133.3,25a1.7,1.7,0,0,0-1,.3,2.069,2.069,0,0,0-.673.8V31h-1.174V21.25h1.174Zm12.111,1.917a5.731,5.731,0,0,1-2.282-1.108,2.116,2.116,0,0,1-.714-1.622,2.236,2.236,0,0,1,.873-1.806,3.469,3.469,0,0,1,2.269-.714,3.786,3.786,0,0,1,1.7.368,2.792,2.792,0,0,1,1.155,1.016,2.6,2.6,0,0,1,.409,1.416h-1.225a1.69,1.69,0,0,0-.533-1.322,2.168,2.168,0,0,0-1.5-.481,2.22,2.22,0,0,0-1.406.4,1.326,1.326,0,0,0-.5,1.1,1.193,1.193,0,0,0,.479.957,4.7,4.7,0,0,0,1.631.715,7.569,7.569,0,0,1,1.8.715,2.736,2.736,0,0,1,.965.911,2.325,2.325,0,0,1,.314,1.225,2.159,2.159,0,0,1-.876,1.8,3.735,3.735,0,0,1-2.342.676,4.344,4.344,0,0,1-1.777-.365,2.991,2.991,0,0,1-1.273-1,2.44,2.44,0,0,1-.448-1.441h1.225a1.592,1.592,0,0,0,.619,1.323,2.606,2.606,0,0,0,1.654.486,2.4,2.4,0,0,0,1.479-.394,1.278,1.278,0,0,0,.514-1.073,1.255,1.255,0,0,0-.476-1.051A5.489,5.489,0,0,0,143.734,26.88ZM152.78,31a2.467,2.467,0,0,1-.165-.724,2.62,2.62,0,0,1-1.955.851,2.424,2.424,0,0,1-1.666-.574,1.859,1.859,0,0,1-.651-1.457,1.942,1.942,0,0,1,.816-1.666,3.846,3.846,0,0,1,2.295-.594H152.6V26.3a1.319,1.319,0,0,0-.368-.981,1.48,1.48,0,0,0-1.085-.365,1.712,1.712,0,0,0-1.054.317.935.935,0,0,0-.425.768h-1.181a1.621,1.621,0,0,1,.365-.993,2.491,2.491,0,0,1,.99-.759A3.331,3.331,0,0,1,151.212,24a2.715,2.715,0,0,1,1.86.594,2.141,2.141,0,0,1,.7,1.635v3.161a3.865,3.865,0,0,0,.241,1.5V31Zm-1.949-.9a2.064,2.064,0,0,0,1.047-.286,1.728,1.728,0,0,0,.717-.743V27.667h-.92q-2.158,0-2.158,1.263a1.069,1.069,0,0,0,.368.863A1.415,1.415,0,0,0,150.831,30.1Zm5.357.9V25.04H155.1v-.908h1.085v-.7a2.339,2.339,0,0,1,.59-1.708,2.23,2.23,0,0,1,1.669-.6,3.1,3.1,0,0,1,.806.107l-.063.946a3.373,3.373,0,0,0-.635-.057,1.146,1.146,0,0,0-.882.334,1.356,1.356,0,0,0-.311.958v.726h1.466v.908h-1.466V31Zm8.176,0a2.467,2.467,0,0,1-.165-.724,2.62,2.62,0,0,1-1.955.851,2.424,2.424,0,0,1-1.666-.574,1.859,1.859,0,0,1-.651-1.457,1.942,1.942,0,0,1,.816-1.666,3.846,3.846,0,0,1,2.295-.594h1.143V26.3a1.319,1.319,0,0,0-.368-.981,1.48,1.48,0,0,0-1.085-.365,1.712,1.712,0,0,0-1.054.317.935.935,0,0,0-.425.768h-1.181a1.621,1.621,0,0,1,.365-.993,2.491,2.491,0,0,1,.99-.759A3.331,3.331,0,0,1,162.8,24a2.715,2.715,0,0,1,1.86.594,2.141,2.141,0,0,1,.7,1.635v3.161a3.865,3.865,0,0,0,.241,1.5V31Zm-1.949-.9a2.064,2.064,0,0,0,1.047-.286,1.728,1.728,0,0,0,.717-.743V27.667h-.92q-2.158,0-2.158,1.263a1.069,1.069,0,0,0,.368.863A1.415,1.415,0,0,0,162.415,30.1Zm8.1-4.919a3.519,3.519,0,0,0-.578-.044,1.547,1.547,0,0,0-1.568.984V31H167.2V24.132h1.143l.019.793a1.829,1.829,0,0,1,1.638-.92,1.2,1.2,0,0,1,.521.089ZM172.87,31H171.7V24.132h1.174Zm-1.27-8.69a.7.7,0,0,1,.175-.482.655.655,0,0,1,.517-.2.666.666,0,0,1,.521.2.694.694,0,0,1,.178.482.671.671,0,0,1-.178.476.678.678,0,0,1-.521.19.667.667,0,0,1-.517-.19A.678.678,0,0,1,171.6,22.31Zm3.174,8.074a.735.735,0,0,1,.181-.508.689.689,0,0,1,.543-.2.71.71,0,0,1,.549.2.721.721,0,0,1,.187.508.682.682,0,0,1-.187.489.723.723,0,0,1-.549.2.653.653,0,0,1-.724-.686Z" transform="translate(49 51)"/>
    <path id="Path_37" data-name="Path 37" d="M11,0H308a11,11,0,0,1,11,11V39a11,11,0,0,1-11,11H11A11,11,0,0,1,0,39V11A11,11,0,0,1,11,0Z" transform="translate(4 135)" fill="#f6f6f6"/>
    <path id="Path_38" data-name="Path 38" d="M4.945,2.758H6.17V9.3a2.711,2.711,0,0,1-.8,2.076,2.974,2.974,0,0,1-2.123.749,3.056,3.056,0,0,1-2.146-.7A2.544,2.544,0,0,1,.336,9.448H1.555a1.694,1.694,0,0,0,.435,1.238,1.685,1.685,0,0,0,1.26.444,1.634,1.634,0,0,0,1.222-.476,1.844,1.844,0,0,0,.473-1.333ZM12.3,11.321a2.494,2.494,0,0,1-2.012.806,2.135,2.135,0,0,1-1.673-.638A2.761,2.761,0,0,1,8.036,9.6V5.132H9.21V9.569q0,1.562,1.27,1.562a1.758,1.758,0,0,0,1.79-1v-5h1.174V12H12.327Zm6.925-1.143a.864.864,0,0,0-.359-.74,3.452,3.452,0,0,0-1.25-.454A5.912,5.912,0,0,1,16.2,8.528a2.014,2.014,0,0,1-.774-.635,1.518,1.518,0,0,1-.251-.876,1.782,1.782,0,0,1,.714-1.428A2.789,2.789,0,0,1,17.716,5a2.87,2.87,0,0,1,1.895.6,1.915,1.915,0,0,1,.727,1.542H19.157a1.06,1.06,0,0,0-.409-.832,1.534,1.534,0,0,0-1.031-.349,1.606,1.606,0,0,0-1,.279.879.879,0,0,0-.362.73.712.712,0,0,0,.336.641,4.139,4.139,0,0,0,1.216.413,6.334,6.334,0,0,1,1.425.47,2.079,2.079,0,0,1,.809.657,1.615,1.615,0,0,1,.263.936,1.758,1.758,0,0,1-.736,1.476,3.089,3.089,0,0,1-1.911.555,3.459,3.459,0,0,1-1.46-.292,2.375,2.375,0,0,1-.993-.816,1.966,1.966,0,0,1-.359-1.133h1.174a1.216,1.216,0,0,0,.473.936,1.835,1.835,0,0,0,1.165.346,1.894,1.894,0,0,0,1.07-.27A.829.829,0,0,0,19.227,10.178Zm4.3-6.709V5.132h1.282V6.04H23.524V10.3a.953.953,0,0,0,.171.62.721.721,0,0,0,.584.207,2.843,2.843,0,0,0,.559-.076V12a3.424,3.424,0,0,1-.9.126,1.462,1.462,0,0,1-1.187-.476,2.045,2.045,0,0,1-.4-1.352V6.04H21.1V5.132h1.25V3.469Zm12.188.286H32.741V12H31.529V3.754H28.564v-1h7.147ZM40.422,12a2.467,2.467,0,0,1-.165-.724,2.62,2.62,0,0,1-1.955.851,2.424,2.424,0,0,1-1.666-.574,1.859,1.859,0,0,1-.651-1.457A1.942,1.942,0,0,1,36.8,8.429,3.846,3.846,0,0,1,39.1,7.836h1.143V7.3a1.319,1.319,0,0,0-.368-.981,1.48,1.48,0,0,0-1.085-.365,1.712,1.712,0,0,0-1.054.317.935.935,0,0,0-.425.768H36.125a1.621,1.621,0,0,1,.365-.993,2.491,2.491,0,0,1,.99-.759A3.331,3.331,0,0,1,38.854,5a2.715,2.715,0,0,1,1.86.594,2.141,2.141,0,0,1,.7,1.635v3.161a3.865,3.865,0,0,0,.241,1.5V12Zm-1.949-.9a2.064,2.064,0,0,0,1.047-.286,1.728,1.728,0,0,0,.717-.743V8.667h-.92q-2.158,0-2.158,1.263a1.069,1.069,0,0,0,.368.863A1.415,1.415,0,0,0,38.473,11.1ZM49.055,8.642a4.113,4.113,0,0,1-.717,2.526,2.3,2.3,0,0,1-1.942.958,2.519,2.519,0,0,1-1.968-.793v3.307H43.253V5.132h1.073l.057.762A2.419,2.419,0,0,1,46.376,5a2.342,2.342,0,0,1,1.958.933,4.157,4.157,0,0,1,.72,2.6ZM47.88,8.509a3.035,3.035,0,0,0-.5-1.834A1.6,1.6,0,0,0,46.027,6a1.726,1.726,0,0,0-1.6.946v3.282a1.73,1.73,0,0,0,1.612.939,1.587,1.587,0,0,0,1.343-.67A3.312,3.312,0,0,0,47.88,8.509ZM94.453,9.582H90.581L89.711,12H88.455l3.529-9.242H93.05L96.586,12h-1.25Zm-3.5-1h3.142L92.517,4.262Zm7.808-3.453L98.795,6A2.5,2.5,0,0,1,100.852,5q2.177,0,2.2,2.457V12h-1.174V7.455a1.581,1.581,0,0,0-.34-1.1A1.361,1.361,0,0,0,100.5,6a1.7,1.7,0,0,0-1,.3,2.069,2.069,0,0,0-.673.8V12H97.646V5.132Zm5.776,3.377a4.023,4.023,0,0,1,.749-2.542,2.548,2.548,0,0,1,3.872-.136V2.25h1.174V12H109.25l-.057-.736a2.391,2.391,0,0,1-1.961.863,2.346,2.346,0,0,1-1.946-.978,4.069,4.069,0,0,1-.752-2.552Zm1.174.133a3.046,3.046,0,0,0,.482,1.828,1.56,1.56,0,0,0,1.333.66,1.713,1.713,0,0,0,1.631-1V6.973A1.726,1.726,0,0,0,107.536,6a1.567,1.567,0,0,0-1.346.667A3.354,3.354,0,0,0,105.708,8.642Zm12.568-.762a5.731,5.731,0,0,1-2.282-1.108,2.116,2.116,0,0,1-.714-1.622,2.236,2.236,0,0,1,.873-1.806,3.469,3.469,0,0,1,2.269-.714,3.786,3.786,0,0,1,1.7.368,2.792,2.792,0,0,1,1.155,1.016,2.6,2.6,0,0,1,.409,1.416h-1.225a1.69,1.69,0,0,0-.533-1.322,2.168,2.168,0,0,0-1.5-.481,2.22,2.22,0,0,0-1.406.4,1.326,1.326,0,0,0-.5,1.1,1.193,1.193,0,0,0,.479.957,4.7,4.7,0,0,0,1.631.715,7.569,7.569,0,0,1,1.8.715,2.736,2.736,0,0,1,.965.911,2.325,2.325,0,0,1,.314,1.225,2.159,2.159,0,0,1-.876,1.8,3.735,3.735,0,0,1-2.342.676,4.344,4.344,0,0,1-1.777-.365,2.991,2.991,0,0,1-1.273-1,2.44,2.44,0,0,1-.448-1.441h1.225a1.592,1.592,0,0,0,.619,1.323,2.606,2.606,0,0,0,1.654.486,2.4,2.4,0,0,0,1.479-.394,1.278,1.278,0,0,0,.514-1.073A1.255,1.255,0,0,0,120,8.614,5.489,5.489,0,0,0,118.276,7.88Zm7.655,4.247a3,3,0,0,1-2.272-.917,3.4,3.4,0,0,1-.876-2.453V8.541a4.121,4.121,0,0,1,.39-1.825,3.045,3.045,0,0,1,1.092-1.257A2.745,2.745,0,0,1,125.785,5a2.572,2.572,0,0,1,2.082.882,3.82,3.82,0,0,1,.743,2.526V8.9h-4.653a2.441,2.441,0,0,0,.594,1.641,1.866,1.866,0,0,0,1.444.625,2.045,2.045,0,0,0,1.054-.254,2.648,2.648,0,0,0,.755-.673l.717.559A2.884,2.884,0,0,1,125.931,12.127Zm-.146-6.157a1.566,1.566,0,0,0-1.193.517,2.515,2.515,0,0,0-.6,1.45h3.44V7.849a2.237,2.237,0,0,0-.482-1.387A1.475,1.475,0,0,0,125.785,5.97ZM131.244,12H130.07V2.25h1.174Zm4.729.127a3,3,0,0,1-2.272-.917,3.4,3.4,0,0,1-.876-2.453V8.541a4.121,4.121,0,0,1,.39-1.825,3.045,3.045,0,0,1,1.092-1.257A2.745,2.745,0,0,1,135.827,5a2.572,2.572,0,0,1,2.082.882,3.82,3.82,0,0,1,.743,2.526V8.9H134a2.441,2.441,0,0,0,.594,1.641,1.866,1.866,0,0,0,1.444.625,2.045,2.045,0,0,0,1.054-.254,2.647,2.647,0,0,0,.755-.673l.717.559A2.884,2.884,0,0,1,135.973,12.127Zm-.146-6.157a1.566,1.566,0,0,0-1.193.517,2.515,2.515,0,0,0-.6,1.45h3.44V7.849A2.237,2.237,0,0,0,137,6.462,1.475,1.475,0,0,0,135.827,5.97Zm6.938,5.2a1.692,1.692,0,0,0,1.1-.381,1.34,1.34,0,0,0,.521-.952h1.111a2.13,2.13,0,0,1-.406,1.124,2.676,2.676,0,0,1-1,.851,2.885,2.885,0,0,1-1.323.317,2.829,2.829,0,0,1-2.231-.936,3.729,3.729,0,0,1-.828-2.561v-.2a4.135,4.135,0,0,1,.368-1.784,2.8,2.8,0,0,1,1.057-1.212A3,3,0,0,1,142.759,5a2.755,2.755,0,0,1,1.92.692,2.473,2.473,0,0,1,.816,1.8h-1.111a1.618,1.618,0,0,0-.5-1.095,1.57,1.57,0,0,0-1.12-.428,1.644,1.644,0,0,0-1.387.644,3.026,3.026,0,0,0-.492,1.863V8.7a2.965,2.965,0,0,0,.489,1.828A1.651,1.651,0,0,0,142.765,11.168Zm5.643-7.7V5.132h1.282V6.04h-1.282V10.3a.953.953,0,0,0,.171.62.721.721,0,0,0,.584.207,2.843,2.843,0,0,0,.559-.076V12a3.424,3.424,0,0,1-.9.126,1.462,1.462,0,0,1-1.187-.476,2.045,2.045,0,0,1-.4-1.352V6.04h-1.25V5.132h1.25V3.469Zm6.748-.349-.222,2.457h-.882V2.25h1.1Zm1.911,0-.222,2.457h-.882V2.25h1.1Zm5.91,6.729H159.4L158.647,12h-1.669l3.491-9.242h1.441l3.5,9.242h-1.676Zm-3.129-1.295h2.679l-1.339-3.834Zm6.17-.038a4.083,4.083,0,0,1,.736-2.549A2.359,2.359,0,0,1,168.727,5a2.242,2.242,0,0,1,1.765.762V2.25h1.542V12h-1.4l-.076-.711a2.274,2.274,0,0,1-1.847.838,2.346,2.346,0,0,1-1.952-.971A4.233,4.233,0,0,1,166.017,8.515Zm1.542.133a2.859,2.859,0,0,0,.4,1.635,1.308,1.308,0,0,0,1.146.587,1.457,1.457,0,0,0,1.384-.844V7.093a1.435,1.435,0,0,0-1.371-.825,1.318,1.318,0,0,0-1.155.594A3.184,3.184,0,0,0,167.559,8.648Zm5.8-.133a4.083,4.083,0,0,1,.736-2.549A2.359,2.359,0,0,1,176.065,5a2.242,2.242,0,0,1,1.765.762V2.25h1.542V12h-1.4l-.076-.711a2.274,2.274,0,0,1-1.847.838,2.346,2.346,0,0,1-1.952-.971A4.233,4.233,0,0,1,173.354,8.515Zm1.542.133a2.859,2.859,0,0,0,.4,1.635,1.308,1.308,0,0,0,1.146.587,1.457,1.457,0,0,0,1.384-.844V7.093a1.435,1.435,0,0,0-1.371-.825,1.318,1.318,0,0,0-1.155.594A3.184,3.184,0,0,0,174.9,8.648Zm15.768-4.6h-2.882V12h-1.593V4.053h-2.856V2.758h7.332Zm-.546,4.45a4.05,4.05,0,0,1,.4-1.819,2.921,2.921,0,0,1,1.124-1.244A3.166,3.166,0,0,1,193.305,5a3,3,0,0,1,2.257.9,3.52,3.52,0,0,1,.936,2.374l.006.362a4.086,4.086,0,0,1-.39,1.815A2.886,2.886,0,0,1,195,11.689a3.189,3.189,0,0,1-1.679.438,2.979,2.979,0,0,1-2.326-.968,3.707,3.707,0,0,1-.873-2.58Zm1.542.133a2.767,2.767,0,0,0,.438,1.66,1.424,1.424,0,0,0,1.219.6,1.408,1.408,0,0,0,1.216-.609,3.057,3.057,0,0,0,.435-1.784,2.732,2.732,0,0,0-.448-1.65,1.508,1.508,0,0,0-2.415-.01A3,3,0,0,0,191.661,8.636ZM208.533,12h-1.6V7.9H202.8V12H201.2V2.758H202.8V6.6h4.132V2.758h1.6Zm1.46-3.5a4.05,4.05,0,0,1,.4-1.819,2.921,2.921,0,0,1,1.124-1.244A3.166,3.166,0,0,1,213.18,5a3,3,0,0,1,2.257.9,3.52,3.52,0,0,1,.936,2.374l.006.362a4.086,4.086,0,0,1-.39,1.815,2.886,2.886,0,0,1-1.117,1.238,3.189,3.189,0,0,1-1.679.438,2.979,2.979,0,0,1-2.326-.968,3.707,3.707,0,0,1-.873-2.58Zm1.542.133a2.767,2.767,0,0,0,.438,1.66,1.424,1.424,0,0,0,1.219.6,1.408,1.408,0,0,0,1.216-.609,3.057,3.057,0,0,0,.435-1.784,2.732,2.732,0,0,0-.448-1.65,1.508,1.508,0,0,0-2.415-.01A3,3,0,0,0,211.536,8.636Zm7.6-3.5.044.717A2.471,2.471,0,0,1,221.159,5a1.9,1.9,0,0,1,1.885,1.054A2.436,2.436,0,0,1,225.151,5a2.141,2.141,0,0,1,1.692.628,2.767,2.767,0,0,1,.568,1.854V12h-1.542V7.531a1.366,1.366,0,0,0-.286-.958,1.25,1.25,0,0,0-.946-.3,1.284,1.284,0,0,0-.86.282,1.49,1.49,0,0,0-.467.74l.006,4.71h-1.542V7.48a1.1,1.1,0,0,0-1.238-1.212,1.358,1.358,0,0,0-1.314.755V12H217.68V5.132Zm12.886,7a3.191,3.191,0,0,1-2.377-.924,3.35,3.35,0,0,1-.911-2.46v-.19a4.121,4.121,0,0,1,.4-1.838,3.02,3.02,0,0,1,1.114-1.26,2.945,2.945,0,0,1,1.6-.451,2.7,2.7,0,0,1,2.168.9,3.785,3.785,0,0,1,.765,2.533v.622h-4.488a2.063,2.063,0,0,0,.568,1.346,1.706,1.706,0,0,0,1.254.5,2.089,2.089,0,0,0,1.727-.857l.832.793a2.777,2.777,0,0,1-1.1.955A3.448,3.448,0,0,1,232.02,12.127Zm-.184-5.884a1.3,1.3,0,0,0-1.025.444,2.3,2.3,0,0,0-.5,1.238h2.939V7.811a1.875,1.875,0,0,0-.413-1.171A1.289,1.289,0,0,0,231.835,6.243Zm7.985,3.891a.7.7,0,0,0-.34-.628,3.612,3.612,0,0,0-1.127-.381,5.792,5.792,0,0,1-1.314-.419,1.754,1.754,0,0,1-1.155-1.619,1.828,1.828,0,0,1,.749-1.485,2.961,2.961,0,0,1,1.9-.6,3.081,3.081,0,0,1,1.99.609,1.934,1.934,0,0,1,.759,1.581h-1.542a.951.951,0,0,0-.33-.74,1.265,1.265,0,0,0-.876-.3,1.367,1.367,0,0,0-.828.235.74.74,0,0,0-.321.628.625.625,0,0,0,.3.552,4.1,4.1,0,0,0,1.206.4,5.709,5.709,0,0,1,1.425.476,2.018,2.018,0,0,1,.768.663,1.692,1.692,0,0,1,.251.939,1.789,1.789,0,0,1-.768,1.5,3.275,3.275,0,0,1-2.012.574,3.551,3.551,0,0,1-1.5-.3,2.476,2.476,0,0,1-1.028-.838,1.983,1.983,0,0,1-.368-1.149h1.5a1.087,1.087,0,0,0,.413.841,1.6,1.6,0,0,0,1.009.3,1.56,1.56,0,0,0,.927-.232A.717.717,0,0,0,239.821,10.134Zm5.681.762a1.4,1.4,0,0,0,.958-.336,1.149,1.149,0,0,0,.406-.832h1.454a2.266,2.266,0,0,1-.4,1.2,2.623,2.623,0,0,1-1.016.879,3.027,3.027,0,0,1-1.384.324,2.928,2.928,0,0,1-2.285-.933,3.7,3.7,0,0,1-.844-2.577V8.458a3.639,3.639,0,0,1,.838-2.51A2.9,2.9,0,0,1,245.515,5a2.822,2.822,0,0,1,2,.714,2.558,2.558,0,0,1,.809,1.876h-1.454a1.412,1.412,0,0,0-.4-.971,1.3,1.3,0,0,0-.962-.381,1.357,1.357,0,0,0-1.155.543,2.769,2.769,0,0,0-.413,1.647V8.68a2.815,2.815,0,0,0,.4,1.666A1.356,1.356,0,0,0,245.5,10.9Zm7.579-4.354a3.817,3.817,0,0,0-.628-.051,1.415,1.415,0,0,0-1.428.813V12h-1.542V5.132h1.473l.038.768a1.738,1.738,0,0,1,1.549-.9,1.444,1.444,0,0,1,.546.089Zm3.878,5.586a3.191,3.191,0,0,1-2.377-.924,3.35,3.35,0,0,1-.911-2.46v-.19a4.121,4.121,0,0,1,.4-1.838,3.02,3.02,0,0,1,1.114-1.26,2.945,2.945,0,0,1,1.6-.451,2.7,2.7,0,0,1,2.168.9,3.785,3.785,0,0,1,.765,2.533v.622h-4.488a2.063,2.063,0,0,0,.568,1.346,1.706,1.706,0,0,0,1.254.5,2.089,2.089,0,0,0,1.727-.857l.832.793a2.777,2.777,0,0,1-1.1.955A3.448,3.448,0,0,1,256.959,12.127Zm-.184-5.884a1.3,1.3,0,0,0-1.025.444,2.3,2.3,0,0,0-.5,1.238h2.939V7.811a1.875,1.875,0,0,0-.413-1.171A1.289,1.289,0,0,0,256.775,6.243Zm7.16,5.884a3.191,3.191,0,0,1-2.377-.924,3.35,3.35,0,0,1-.911-2.46v-.19a4.121,4.121,0,0,1,.4-1.838,3.02,3.02,0,0,1,1.114-1.26,2.945,2.945,0,0,1,1.6-.451,2.7,2.7,0,0,1,2.168.9,3.785,3.785,0,0,1,.765,2.533v.622H262.2a2.063,2.063,0,0,0,.568,1.346,1.706,1.706,0,0,0,1.254.5,2.089,2.089,0,0,0,1.727-.857l.832.793a2.777,2.777,0,0,1-1.1.955A3.448,3.448,0,0,1,263.936,12.127Zm-.184-5.884a1.3,1.3,0,0,0-1.025.444,2.3,2.3,0,0,0-.5,1.238h2.939V7.811a1.875,1.875,0,0,0-.413-1.171A1.289,1.289,0,0,0,263.751,6.243Zm5.567-1.111.044.793a2.469,2.469,0,0,1,2-.92q2.145,0,2.184,2.457V12H272V7.55a1.414,1.414,0,0,0-.282-.968,1.188,1.188,0,0,0-.924-.314,1.486,1.486,0,0,0-1.39.844V12h-1.542V5.132Zm6.246-2.012-.222,2.457h-.882V2.25h1.1Zm1.911,0-.222,2.457h-.882V2.25h1.1Z" transform="translate(23 153)"/>
    <g id="Ei-share-apple" transform="translate(69.896 140.101)">
      <path id="Path_32" data-name="Path 32" d="M27.292,11.669,23.32,7.7l-3.971,3.971L18.3,10.62,23.32,5.6l5.02,5.02Z" transform="translate(-1.579)" fill="#0091ff"/>
      <path id="Path_33" data-name="Path 33" d="M24,7h1.5V22.736H24Z" transform="translate(-3.008 -0.351)" fill="#0091ff"/>
      <path id="Path_34" data-name="Path 34" d="M29.234,33.983H14.248A2.208,2.208,0,0,1,12,31.736V18.248A2.208,2.208,0,0,1,14.248,16h5.245v1.5H14.248a.708.708,0,0,0-.749.749V31.736a.708.708,0,0,0,.749.749H29.234a.708.708,0,0,0,.749-.749V18.248a.708.708,0,0,0-.749-.749H23.989V16h5.245a2.208,2.208,0,0,1,2.248,2.248V31.736A2.208,2.208,0,0,1,29.234,33.983Z" transform="translate(0 -2.607)" fill="#0091ff"/>
    </g>
  </g>
</svg>
