<svg id="shopping_cart-24px_3_" data-name="shopping_cart-24px (3)" xmlns="http://www.w3.org/2000/svg" width="22" height="22" viewBox="0 0 22 22">
  <path id="Path_19" data-name="Path 19" d="M0,0H22V22H0Z" fill="none"/>
  <path id="Path_20" data-name="Path 20" d="M14.338,12.083a1.825,1.825,0,0,0,1.6-.944L19.223,5.19a.913.913,0,0,0-.8-1.357H4.859L4,2H1V3.833H2.833l3.3,6.958L4.9,13.028A1.837,1.837,0,0,0,6.5,15.75h11V13.917H6.5l1.008-1.833ZM5.73,5.667H16.868l-2.53,4.583H7.9Zm.77,11A1.833,1.833,0,1,0,8.333,18.5,1.831,1.831,0,0,0,6.5,16.667Zm9.167,0A1.833,1.833,0,1,0,17.5,18.5,1.831,1.831,0,0,0,15.667,16.667Z" transform="translate(-0.083 -0.167)"/>
</svg>
